<svg xmlns="http://www.w3.org/2000/svg" version="1.1" viewBox="-5.0 -10.0 110.0 135.0">
 <path d="m11.438 12.461c-3.9375 0-7.1523 3.2148-7.1523 7.1523v60.777c0 3.9375 3.2148 7.1484 7.1523 7.1484h77.125c3.9375 0 7.1523-3.2109 7.1523-7.1484v-60.781c0-3.9375-3.2148-7.1523-7.1523-7.1523zm0 2.8555h77.125c2.4023 0 4.293 1.8906 4.293 4.293v8.9297l-85.711 0.003907v-8.9297c0-2.4023 1.8867-4.293 4.293-4.293zm6.4102 4.4688c-1.1797 0-2.1445 0.96484-2.1445 2.1445 0 1.1797 0.96484 2.1445 2.1445 2.1445 1.1797 0 2.1445-0.96484 2.1445-2.1445 0-1.1797-0.96484-2.1445-2.1445-2.1445zm11.41 0c-1.1797 0-2.1445 0.96484-2.1445 2.1445 0 1.1797 0.96484 2.1445 2.1445 2.1445 1.1797 0 2.1406-0.96484 2.1406-2.1445 0-1.1797-0.96094-2.1445-2.1406-2.1445zm11.406 0c-1.1797 0-2.1445 0.96484-2.1445 2.1445 0 1.1797 0.96484 2.1445 2.1445 2.1445 1.1797 0 2.1445-0.96484 2.1445-2.1445 0-1.1797-0.96484-2.1445-2.1445-2.1445zm-33.516 11.613h85.707v48.992c0 2.4023-1.8906 4.293-4.293 4.293h-77.125c-2.4023 0-4.293-1.8906-4.293-4.293zm47.41 8.4023h-0.003906c-0.66797-0.027343-1.2617 0.41406-1.4336 1.0586l-9.0039 33.625c-0.20703 0.76172 0.24219 1.5469 1 1.7539 0.36719 0.097657 0.75781 0.046875 1.0859-0.14453s0.56641-0.50391 0.66406-0.86719l9.0195-33.629c0.097656-0.36719 0.046875-0.75781-0.14453-1.0859-0.19141-0.32812-0.50391-0.56641-0.87109-0.66406-0.10156-0.027344-0.20703-0.046875-0.31641-0.050781zm-14.16 3.5156h-0.003907c-0.37891 0-0.74219 0.14844-1.0117 0.41797l-13.297 13.297v0.003906c-0.55469 0.55469-0.55469 1.457 0 2.0117l13.297 13.297c0.55859 0.55469 1.457 0.55469 2.0156 0 0.26953-0.26562 0.41797-0.62891 0.41797-1.0117 0-0.37891-0.14844-0.74219-0.41797-1.0117l-12.277-12.285 12.277-12.273c0.26953-0.26953 0.41797-0.63281 0.41797-1.0117 0-0.38281-0.14844-0.74609-0.41797-1.0156-0.26563-0.26562-0.62891-0.41797-1.0039-0.41797zm19.211 0c-0.38281 0-0.74609 0.14844-1.0156 0.41797s-0.42188 0.63281-0.42188 1.0156c0 0.37891 0.15234 0.74219 0.42188 1.0117l12.285 12.273-12.285 12.285c-0.26953 0.26953-0.42188 0.63281-0.42188 1.0117 0 0.38281 0.15234 0.74609 0.42188 1.0117 0.26953 0.27344 0.63281 0.42188 1.0156 0.42188 0.37891 0 0.74219-0.14844 1.0117-0.42188l13.285-13.297c0.55469-0.55469 0.55469-1.457 0-2.0117l-13.285-13.297v-0.003906c-0.26953-0.26953-0.63281-0.41797-1.0117-0.41797z"/>
<text x="0.0" y="117.5" font-size="5.0" font-weight="bold" font-family="Arbeit Regular, Helvetica, Arial-Unicode, Arial, Sans-serif" fill="#000000">Created by Alzam</text><text x="0.0" y="122.5" font-size="5.0" font-weight="bold" font-family="Arbeit Regular, Helvetica, Arial-Unicode, Arial, Sans-serif" fill="#000000">from Noun Project</text></svg>